<svg xmlns="http://www.w3.org/2000/svg" xmlns:xlink="http://www.w3.org/1999/xlink" viewBox="0,0,256,256" width="32px" height="32px" fill-rule="nonzero"><g fill="#ffffff" fill-rule="nonzero" stroke="none" stroke-width="1" stroke-linecap="butt" stroke-linejoin="miter" stroke-miterlimit="10" stroke-dasharray="" stroke-dashoffset="0" font-family="none" font-weight="none" font-size="none" text-anchor="none" style="mix-blend-mode: normal"><g transform="scale(8,8)"><path d="M7,7v2h2v-2zM9,9v2h2v-2zM11,11v2h2v-2zM13,13v2h2v-2zM15,15v2h2v-2zM17,15h2v-2h-2zM19,13h2v-2h-2zM21,11h2v-2h-2zM23,9h2v-2h-2zM17,17v2h2v-2zM19,19v2h2v-2zM21,21v2h2v-2zM23,23v2h2v-2zM15,17h-2v2h2zM13,19h-2v2h2zM11,21h-2v2h2zM9,23h-2v2h2z"></path></g></g></svg>